# xmcd
#
# Track frame offsets: 
#        182
#        20032
#        39395
#        60415
#        83275
#        95512
#        113217
#        130837
#        147347
#        165787
#        183692
#        205352
#        232547
#        247317
#        264447
#        281555
#        295932
#        314847
#        334410
#
# Disc length: 4671 seconds
#
# Revision: 8
# Processed by: cddbd v1.5.2PL0 Copyright (c) Steve Scherf et al.
# Submitted via: ExactAudioCopyFreeDBPlugin 1.0
#
DISCID=14123d13
DTITLE=The Temptations - The Temptations:  Emperors of Soul [box set]
DYEAR=1994
DGENRE=Soul
TTITLE0=Masterpiece
TTITLE1=Plastic Man
TTITLE2=Hey Girl (I Like Your Style)
TTITLE3=Law of the Land (alternate mix)
TTITLE4=Let Your Hair Down
TTITLE5=Heavenly
TTITLE6=You've Got My Soul on Fire
TTITLE7=Happy People
TTITLE8=Shakey Ground
TTITLE9=Glasshouse
TTITLE10=A Song for You
TTITLE11=Memories
TTITLE12=Keep Holdin' On
TTITLE13=Darling Stand By Me (Song for My Woman)
TTITLE14=Who Are You
TTITLE15=In a Lifetime
TTITLE16=Power
TTITLE17=Isn't the Night Fantastic
TTITLE18=Aiming at Your Heart
EXTD=
EXTT0=
EXTT1=
EXTT2=
EXTT3=
EXTT4=
EXTT5=
EXTT6=
EXTT7=
EXTT8=
EXTT9=
EXTT10=
EXTT11=
EXTT12=
EXTT13=
EXTT14=
EXTT15=
EXTT16=
EXTT17=
EXTT18=
PLAYORDER=
